<mxfile host="app.diagrams.net" agent="Mozilla/5.0 (Windows NT 10.0; Win64; x64) AppleWebKit/537.36 (KHTML, like Gecko) Chrome/128.0.0.0 Safari/537.36" version="24.7.14" pages="4">
  <diagram name="Home" id="14ouls304oqn8meXeB7S">
    <mxGraphModel dx="1372" dy="820" grid="1" gridSize="10" guides="1" tooltips="1" connect="1" arrows="1" fold="1" page="1" pageScale="1" pageWidth="827" pageHeight="1169" math="0" shadow="0">
      <root>
        <mxCell id="0" />
        <mxCell id="1" parent="0" />
        <mxCell id="mM7N1gJTT3vT-ZBSGrRl-6" value="" style="edgeStyle=orthogonalEdgeStyle;rounded=0;orthogonalLoop=1;jettySize=auto;html=1;" parent="1" source="mM7N1gJTT3vT-ZBSGrRl-1" target="mM7N1gJTT3vT-ZBSGrRl-4" edge="1">
          <mxGeometry relative="1" as="geometry" />
        </mxCell>
        <mxCell id="mM7N1gJTT3vT-ZBSGrRl-1" value="Begin" style="ellipse;whiteSpace=wrap;html=1;" parent="1" vertex="1">
          <mxGeometry x="354" y="30" width="120" height="80" as="geometry" />
        </mxCell>
        <mxCell id="mM7N1gJTT3vT-ZBSGrRl-13" value="" style="edgeStyle=orthogonalEdgeStyle;rounded=0;orthogonalLoop=1;jettySize=auto;html=1;" parent="1" source="mM7N1gJTT3vT-ZBSGrRl-4" target="mM7N1gJTT3vT-ZBSGrRl-7" edge="1">
          <mxGeometry relative="1" as="geometry" />
        </mxCell>
        <mxCell id="hh8kq7U29cbinEG50e-f-1" value="False" style="edgeLabel;html=1;align=center;verticalAlign=middle;resizable=0;points=[];" parent="mM7N1gJTT3vT-ZBSGrRl-13" vertex="1" connectable="0">
          <mxGeometry x="0.0035" y="3" relative="1" as="geometry">
            <mxPoint as="offset" />
          </mxGeometry>
        </mxCell>
        <mxCell id="mM7N1gJTT3vT-ZBSGrRl-14" value="" style="edgeStyle=orthogonalEdgeStyle;rounded=0;orthogonalLoop=1;jettySize=auto;html=1;" parent="1" source="mM7N1gJTT3vT-ZBSGrRl-4" target="mM7N1gJTT3vT-ZBSGrRl-8" edge="1">
          <mxGeometry relative="1" as="geometry" />
        </mxCell>
        <mxCell id="hh8kq7U29cbinEG50e-f-2" value="True" style="edgeLabel;html=1;align=center;verticalAlign=middle;resizable=0;points=[];" parent="mM7N1gJTT3vT-ZBSGrRl-14" vertex="1" connectable="0">
          <mxGeometry x="-0.1704" y="-1" relative="1" as="geometry">
            <mxPoint as="offset" />
          </mxGeometry>
        </mxCell>
        <mxCell id="mM7N1gJTT3vT-ZBSGrRl-4" value="Register" style="rhombus;whiteSpace=wrap;html=1;" parent="1" vertex="1">
          <mxGeometry x="369" y="160" width="90" height="90" as="geometry" />
        </mxCell>
        <mxCell id="mM7N1gJTT3vT-ZBSGrRl-7" value="2" style="shape=offPageConnector;whiteSpace=wrap;html=1;" parent="1" vertex="1">
          <mxGeometry x="200" y="165" width="80" height="80" as="geometry" />
        </mxCell>
        <mxCell id="mM7N1gJTT3vT-ZBSGrRl-8" value="1" style="shape=offPageConnector;whiteSpace=wrap;html=1;" parent="1" vertex="1">
          <mxGeometry x="560" y="165" width="80" height="80" as="geometry" />
        </mxCell>
      </root>
    </mxGraphModel>
  </diagram>
  <diagram id="oDFjtYayFT5eq8xOY4nx" name="1 Register">
    <mxGraphModel dx="1143" dy="683" grid="1" gridSize="10" guides="1" tooltips="1" connect="1" arrows="1" fold="1" page="1" pageScale="1" pageWidth="827" pageHeight="1169" math="0" shadow="0">
      <root>
        <mxCell id="0" />
        <mxCell id="1" parent="0" />
        <mxCell id="TjQZvMsEXXk0zm0HdSpj-4" value="" style="edgeStyle=orthogonalEdgeStyle;rounded=0;orthogonalLoop=1;jettySize=auto;html=1;" parent="1" source="TjQZvMsEXXk0zm0HdSpj-1" target="TjQZvMsEXXk0zm0HdSpj-2" edge="1">
          <mxGeometry relative="1" as="geometry" />
        </mxCell>
        <mxCell id="TjQZvMsEXXk0zm0HdSpj-1" value="1" style="shape=offPageConnector;whiteSpace=wrap;html=1;" parent="1" vertex="1">
          <mxGeometry x="374" y="40" width="80" height="80" as="geometry" />
        </mxCell>
        <mxCell id="TjQZvMsEXXk0zm0HdSpj-9" value="" style="edgeStyle=orthogonalEdgeStyle;rounded=0;orthogonalLoop=1;jettySize=auto;html=1;" parent="1" source="TjQZvMsEXXk0zm0HdSpj-2" target="TjQZvMsEXXk0zm0HdSpj-7" edge="1">
          <mxGeometry relative="1" as="geometry" />
        </mxCell>
        <mxCell id="TjQZvMsEXXk0zm0HdSpj-2" value="Get data&lt;div&gt;user id, email,&lt;/div&gt;&lt;div&gt;&lt;span style=&quot;background-color: initial;&quot;&gt;password, re-password&lt;/span&gt;&lt;/div&gt;" style="shape=parallelogram;perimeter=parallelogramPerimeter;whiteSpace=wrap;html=1;fixedSize=1;" parent="1" vertex="1">
          <mxGeometry x="328" y="160" width="171" height="60" as="geometry" />
        </mxCell>
        <mxCell id="OsTYlCVyohexOXfW73KU-2" value="" style="edgeStyle=orthogonalEdgeStyle;rounded=0;orthogonalLoop=1;jettySize=auto;html=1;" parent="1" source="TjQZvMsEXXk0zm0HdSpj-5" target="OsTYlCVyohexOXfW73KU-1" edge="1">
          <mxGeometry relative="1" as="geometry" />
        </mxCell>
        <mxCell id="TjQZvMsEXXk0zm0HdSpj-5" value="Create data&lt;div&gt;Set data in database&lt;/div&gt;" style="rounded=0;whiteSpace=wrap;html=1;" parent="1" vertex="1">
          <mxGeometry x="354" y="510" width="120" height="60" as="geometry" />
        </mxCell>
        <mxCell id="TjQZvMsEXXk0zm0HdSpj-10" value="" style="edgeStyle=orthogonalEdgeStyle;rounded=0;orthogonalLoop=1;jettySize=auto;html=1;" parent="1" source="TjQZvMsEXXk0zm0HdSpj-7" target="TjQZvMsEXXk0zm0HdSpj-8" edge="1">
          <mxGeometry relative="1" as="geometry" />
        </mxCell>
        <mxCell id="TjQZvMsEXXk0zm0HdSpj-18" value="True" style="edgeLabel;html=1;align=center;verticalAlign=middle;resizable=0;points=[];" parent="TjQZvMsEXXk0zm0HdSpj-10" vertex="1" connectable="0">
          <mxGeometry x="-0.5139" y="3" relative="1" as="geometry">
            <mxPoint as="offset" />
          </mxGeometry>
        </mxCell>
        <mxCell id="TjQZvMsEXXk0zm0HdSpj-19" value="" style="edgeStyle=orthogonalEdgeStyle;rounded=0;orthogonalLoop=1;jettySize=auto;html=1;" parent="1" source="TjQZvMsEXXk0zm0HdSpj-7" target="TjQZvMsEXXk0zm0HdSpj-5" edge="1">
          <mxGeometry relative="1" as="geometry" />
        </mxCell>
        <mxCell id="TjQZvMsEXXk0zm0HdSpj-20" value="False" style="edgeLabel;html=1;align=center;verticalAlign=middle;resizable=0;points=[];" parent="TjQZvMsEXXk0zm0HdSpj-19" vertex="1" connectable="0">
          <mxGeometry x="-0.0571" y="4" relative="1" as="geometry">
            <mxPoint as="offset" />
          </mxGeometry>
        </mxCell>
        <mxCell id="TjQZvMsEXXk0zm0HdSpj-7" value="If user id is empty or&lt;div&gt;email is empty&amp;nbsp;&lt;span style=&quot;background-color: initial;&quot;&gt;or&lt;/span&gt;&lt;/div&gt;&lt;div&gt;&lt;span style=&quot;background-color: initial;&quot;&gt;password&amp;nbsp;&lt;/span&gt;&lt;span style=&quot;background-color: initial;&quot;&gt;is empty&amp;nbsp;&lt;/span&gt;&lt;span style=&quot;background-color: initial;&quot;&gt;or&lt;/span&gt;&lt;/div&gt;&lt;div&gt;&lt;span style=&quot;background-color: initial;&quot;&gt;re-password&amp;nbsp;&lt;/span&gt;&lt;span style=&quot;background-color: initial;&quot;&gt;is empty&amp;nbsp;&lt;/span&gt;&lt;span style=&quot;background-color: initial;&quot;&gt;or&lt;/span&gt;&lt;/div&gt;&lt;div&gt;&lt;span style=&quot;background-color: initial;&quot;&gt;password and re-password&lt;/span&gt;&lt;/div&gt;&lt;div&gt;&lt;span style=&quot;background-color: initial;&quot;&gt;is not matched&lt;br&gt;&lt;/span&gt;&lt;/div&gt;" style="rhombus;whiteSpace=wrap;html=1;" parent="1" vertex="1">
          <mxGeometry x="292" y="270" width="244" height="170" as="geometry" />
        </mxCell>
        <mxCell id="TjQZvMsEXXk0zm0HdSpj-17" value="" style="edgeStyle=orthogonalEdgeStyle;rounded=0;orthogonalLoop=1;jettySize=auto;html=1;" parent="1" source="TjQZvMsEXXk0zm0HdSpj-8" target="TjQZvMsEXXk0zm0HdSpj-2" edge="1">
          <mxGeometry relative="1" as="geometry" />
        </mxCell>
        <mxCell id="TjQZvMsEXXk0zm0HdSpj-8" value="Alert user to check data" style="shape=display;whiteSpace=wrap;html=1;" parent="1" vertex="1">
          <mxGeometry x="100" y="157.5" width="180" height="65" as="geometry" />
        </mxCell>
        <mxCell id="OsTYlCVyohexOXfW73KU-1" value="2" style="shape=offPageConnector;whiteSpace=wrap;html=1;" parent="1" vertex="1">
          <mxGeometry x="374" y="600" width="80" height="80" as="geometry" />
        </mxCell>
      </root>
    </mxGraphModel>
  </diagram>
  <diagram id="6Ysj3Kcsd4LHna5A1Alk" name="2 Login">
    <mxGraphModel dx="1372" dy="820" grid="1" gridSize="10" guides="1" tooltips="1" connect="1" arrows="1" fold="1" page="1" pageScale="1" pageWidth="827" pageHeight="1169" math="0" shadow="0">
      <root>
        <mxCell id="0" />
        <mxCell id="1" parent="0" />
        <mxCell id="lCOMRUSbNW63M5e8ykPP-4" value="" style="edgeStyle=orthogonalEdgeStyle;rounded=0;orthogonalLoop=1;jettySize=auto;html=1;" parent="1" source="-FCM_u_fR4y-08uGpL9j-2" target="lCOMRUSbNW63M5e8ykPP-2" edge="1">
          <mxGeometry relative="1" as="geometry" />
        </mxCell>
        <mxCell id="-FCM_u_fR4y-08uGpL9j-2" value="2" style="shape=offPageConnector;whiteSpace=wrap;html=1;" parent="1" vertex="1">
          <mxGeometry x="374" y="40" width="80" height="80" as="geometry" />
        </mxCell>
        <mxCell id="EGNvUChhHwNNpgVIsFBF-31" value="" style="edgeStyle=orthogonalEdgeStyle;rounded=0;orthogonalLoop=1;jettySize=auto;html=1;" parent="1" source="EGNvUChhHwNNpgVIsFBF-2" target="EGNvUChhHwNNpgVIsFBF-3" edge="1">
          <mxGeometry relative="1" as="geometry" />
        </mxCell>
        <mxCell id="EGNvUChhHwNNpgVIsFBF-34" value="False" style="edgeLabel;html=1;align=center;verticalAlign=middle;resizable=0;points=[];" parent="EGNvUChhHwNNpgVIsFBF-31" vertex="1" connectable="0">
          <mxGeometry x="-0.381" y="2" relative="1" as="geometry">
            <mxPoint as="offset" />
          </mxGeometry>
        </mxCell>
        <mxCell id="EGNvUChhHwNNpgVIsFBF-38" value="" style="edgeStyle=orthogonalEdgeStyle;rounded=0;orthogonalLoop=1;jettySize=auto;html=1;" parent="1" source="EGNvUChhHwNNpgVIsFBF-2" target="EGNvUChhHwNNpgVIsFBF-37" edge="1">
          <mxGeometry relative="1" as="geometry" />
        </mxCell>
        <mxCell id="EGNvUChhHwNNpgVIsFBF-39" value="True" style="edgeLabel;html=1;align=center;verticalAlign=middle;resizable=0;points=[];" parent="EGNvUChhHwNNpgVIsFBF-38" vertex="1" connectable="0">
          <mxGeometry x="0.1111" y="1" relative="1" as="geometry">
            <mxPoint as="offset" />
          </mxGeometry>
        </mxCell>
        <mxCell id="EGNvUChhHwNNpgVIsFBF-2" value="&lt;br&gt;Have more&amp;nbsp;&lt;div&gt;than 5&amp;nbsp;&lt;/div&gt;&lt;div&gt;attempts&lt;br&gt;&lt;br&gt;&lt;/div&gt;" style="rhombus;whiteSpace=wrap;html=1;" parent="1" vertex="1">
          <mxGeometry x="335" y="360" width="157" height="112" as="geometry" />
        </mxCell>
        <mxCell id="EGNvUChhHwNNpgVIsFBF-32" value="" style="edgeStyle=orthogonalEdgeStyle;rounded=0;orthogonalLoop=1;jettySize=auto;html=1;" parent="1" source="EGNvUChhHwNNpgVIsFBF-3" target="EGNvUChhHwNNpgVIsFBF-4" edge="1">
          <mxGeometry relative="1" as="geometry" />
        </mxCell>
        <mxCell id="EGNvUChhHwNNpgVIsFBF-35" value="True" style="edgeLabel;html=1;align=center;verticalAlign=middle;resizable=0;points=[];" parent="EGNvUChhHwNNpgVIsFBF-32" vertex="1" connectable="0">
          <mxGeometry x="-0.1453" y="-1" relative="1" as="geometry">
            <mxPoint as="offset" />
          </mxGeometry>
        </mxCell>
        <mxCell id="EGNvUChhHwNNpgVIsFBF-43" value="" style="edgeStyle=orthogonalEdgeStyle;rounded=0;orthogonalLoop=1;jettySize=auto;html=1;" parent="1" source="EGNvUChhHwNNpgVIsFBF-3" target="EGNvUChhHwNNpgVIsFBF-40" edge="1">
          <mxGeometry relative="1" as="geometry" />
        </mxCell>
        <mxCell id="1Jrs2Z_aNGUjOoK22Sqn-16" value="False" style="edgeLabel;html=1;align=center;verticalAlign=middle;resizable=0;points=[];" parent="EGNvUChhHwNNpgVIsFBF-43" vertex="1" connectable="0">
          <mxGeometry x="0.0039" y="-1" relative="1" as="geometry">
            <mxPoint as="offset" />
          </mxGeometry>
        </mxCell>
        <mxCell id="EGNvUChhHwNNpgVIsFBF-3" value="&lt;div&gt;Does user id exit&lt;/div&gt;" style="rhombus;whiteSpace=wrap;html=1;" parent="1" vertex="1">
          <mxGeometry x="335" y="510" width="157" height="112" as="geometry" />
        </mxCell>
        <mxCell id="EGNvUChhHwNNpgVIsFBF-33" value="" style="edgeStyle=orthogonalEdgeStyle;rounded=0;orthogonalLoop=1;jettySize=auto;html=1;" parent="1" source="EGNvUChhHwNNpgVIsFBF-4" edge="1">
          <mxGeometry relative="1" as="geometry">
            <mxPoint x="414.0000000000002" y="850" as="targetPoint" />
          </mxGeometry>
        </mxCell>
        <mxCell id="EGNvUChhHwNNpgVIsFBF-36" value="True" style="edgeLabel;html=1;align=center;verticalAlign=middle;resizable=0;points=[];" parent="EGNvUChhHwNNpgVIsFBF-33" vertex="1" connectable="0">
          <mxGeometry x="-0.4138" y="-2" relative="1" as="geometry">
            <mxPoint as="offset" />
          </mxGeometry>
        </mxCell>
        <mxCell id="EGNvUChhHwNNpgVIsFBF-44" value="" style="edgeStyle=orthogonalEdgeStyle;rounded=0;orthogonalLoop=1;jettySize=auto;html=1;" parent="1" source="EGNvUChhHwNNpgVIsFBF-4" target="EGNvUChhHwNNpgVIsFBF-41" edge="1">
          <mxGeometry relative="1" as="geometry" />
        </mxCell>
        <mxCell id="1Jrs2Z_aNGUjOoK22Sqn-17" value="False" style="edgeLabel;html=1;align=center;verticalAlign=middle;resizable=0;points=[];" parent="EGNvUChhHwNNpgVIsFBF-44" vertex="1" connectable="0">
          <mxGeometry x="0.0565" y="-1" relative="1" as="geometry">
            <mxPoint as="offset" />
          </mxGeometry>
        </mxCell>
        <mxCell id="EGNvUChhHwNNpgVIsFBF-4" value="&lt;div&gt;Does password match&lt;/div&gt;&lt;div&gt;user id&lt;/div&gt;" style="rhombus;whiteSpace=wrap;html=1;" parent="1" vertex="1">
          <mxGeometry x="335.5" y="680" width="157" height="112" as="geometry" />
        </mxCell>
        <mxCell id="EGNvUChhHwNNpgVIsFBF-37" value="Lock account and Display alert" style="rounded=0;whiteSpace=wrap;html=1;" parent="1" vertex="1">
          <mxGeometry x="160" y="386" width="120" height="60" as="geometry" />
        </mxCell>
        <mxCell id="41LwwCZb1NcT4uNRcfcN-3" value="" style="edgeStyle=orthogonalEdgeStyle;rounded=0;orthogonalLoop=1;jettySize=auto;html=1;" parent="1" source="EGNvUChhHwNNpgVIsFBF-40" target="41LwwCZb1NcT4uNRcfcN-2" edge="1">
          <mxGeometry relative="1" as="geometry" />
        </mxCell>
        <mxCell id="EGNvUChhHwNNpgVIsFBF-40" value="Display error,&lt;div&gt;Give register link&lt;/div&gt;" style="rounded=0;whiteSpace=wrap;html=1;" parent="1" vertex="1">
          <mxGeometry x="160" y="536" width="120" height="60" as="geometry" />
        </mxCell>
        <mxCell id="1Jrs2Z_aNGUjOoK22Sqn-15" style="edgeStyle=orthogonalEdgeStyle;rounded=0;orthogonalLoop=1;jettySize=auto;html=1;entryX=0;entryY=0.5;entryDx=0;entryDy=0;" parent="1" source="EGNvUChhHwNNpgVIsFBF-41" target="lCOMRUSbNW63M5e8ykPP-2" edge="1">
          <mxGeometry relative="1" as="geometry">
            <Array as="points">
              <mxPoint x="110" y="736" />
              <mxPoint x="110" y="190" />
            </Array>
          </mxGeometry>
        </mxCell>
        <mxCell id="EGNvUChhHwNNpgVIsFBF-41" value="Display password&lt;div&gt;does not match&lt;br&gt;&lt;/div&gt;" style="rounded=0;whiteSpace=wrap;html=1;" parent="1" vertex="1">
          <mxGeometry x="160" y="706" width="120" height="60" as="geometry" />
        </mxCell>
        <mxCell id="41LwwCZb1NcT4uNRcfcN-2" value="1" style="shape=offPageConnector;whiteSpace=wrap;html=1;" parent="1" vertex="1">
          <mxGeometry x="190" y="460" width="60" height="52" as="geometry" />
        </mxCell>
        <mxCell id="1Jrs2Z_aNGUjOoK22Sqn-18" value="" style="edgeStyle=orthogonalEdgeStyle;rounded=0;orthogonalLoop=1;jettySize=auto;html=1;" parent="1" source="lCOMRUSbNW63M5e8ykPP-2" target="1Jrs2Z_aNGUjOoK22Sqn-1" edge="1">
          <mxGeometry relative="1" as="geometry" />
        </mxCell>
        <mxCell id="lCOMRUSbNW63M5e8ykPP-2" value="Get user id&lt;div&gt;and&lt;div&gt;password&lt;/div&gt;&lt;/div&gt;" style="shape=parallelogram;perimeter=parallelogramPerimeter;whiteSpace=wrap;html=1;fixedSize=1;" parent="1" vertex="1">
          <mxGeometry x="354" y="160" width="120" height="60" as="geometry" />
        </mxCell>
        <mxCell id="1Jrs2Z_aNGUjOoK22Sqn-19" value="" style="edgeStyle=orthogonalEdgeStyle;rounded=0;orthogonalLoop=1;jettySize=auto;html=1;" parent="1" source="1Jrs2Z_aNGUjOoK22Sqn-1" target="EGNvUChhHwNNpgVIsFBF-2" edge="1">
          <mxGeometry relative="1" as="geometry" />
        </mxCell>
        <mxCell id="1Jrs2Z_aNGUjOoK22Sqn-1" value="Login" style="whiteSpace=wrap;html=1;aspect=fixed;" parent="1" vertex="1">
          <mxGeometry x="374" y="250" width="80" height="80" as="geometry" />
        </mxCell>
        <mxCell id="wYheMnjjvryxDXabBCtx-1" value="3" style="shape=offPageConnector;whiteSpace=wrap;html=1;" parent="1" vertex="1">
          <mxGeometry x="530" y="840" width="80" height="80" as="geometry" />
        </mxCell>
        <mxCell id="uTH5zz7RHc9NGSGeIwUH-2" value="" style="edgeStyle=orthogonalEdgeStyle;rounded=0;orthogonalLoop=1;jettySize=auto;html=1;" edge="1" parent="1" source="uTH5zz7RHc9NGSGeIwUH-1" target="wYheMnjjvryxDXabBCtx-1">
          <mxGeometry relative="1" as="geometry" />
        </mxCell>
        <mxCell id="uTH5zz7RHc9NGSGeIwUH-1" value="Grant access" style="rounded=0;whiteSpace=wrap;html=1;" vertex="1" parent="1">
          <mxGeometry x="354" y="850" width="120" height="60" as="geometry" />
        </mxCell>
      </root>
    </mxGraphModel>
  </diagram>
  <diagram id="Jla34UvgdhyZ7EVjhWDj" name="3 Dashboard">
    <mxGraphModel dx="1143" dy="683" grid="1" gridSize="10" guides="1" tooltips="1" connect="1" arrows="1" fold="1" page="1" pageScale="1" pageWidth="827" pageHeight="1169" math="0" shadow="0">
      <root>
        <mxCell id="0" />
        <mxCell id="1" parent="0" />
        <mxCell id="rVXvo9-b3WHdrtRTh_N--8" value="" style="edgeStyle=orthogonalEdgeStyle;rounded=0;orthogonalLoop=1;jettySize=auto;html=1;" edge="1" parent="1" source="9q34piGnxwVsBUwb4eok-1" target="rVXvo9-b3WHdrtRTh_N--1">
          <mxGeometry relative="1" as="geometry" />
        </mxCell>
        <mxCell id="9q34piGnxwVsBUwb4eok-1" value="3" style="shape=offPageConnector;whiteSpace=wrap;html=1;" parent="1" vertex="1">
          <mxGeometry x="374" y="50" width="80" height="80" as="geometry" />
        </mxCell>
        <mxCell id="t69asO9pZRZSOTAqBW_Y-4" value="" style="edgeStyle=orthogonalEdgeStyle;rounded=0;orthogonalLoop=1;jettySize=auto;html=1;" edge="1" parent="1" source="mw8AwSV7gZqeVGYfNYGR-1" target="t69asO9pZRZSOTAqBW_Y-3">
          <mxGeometry relative="1" as="geometry" />
        </mxCell>
        <mxCell id="t69asO9pZRZSOTAqBW_Y-5" value="True" style="edgeLabel;html=1;align=center;verticalAlign=middle;resizable=0;points=[];" vertex="1" connectable="0" parent="t69asO9pZRZSOTAqBW_Y-4">
          <mxGeometry x="-0.088" y="2" relative="1" as="geometry">
            <mxPoint as="offset" />
          </mxGeometry>
        </mxCell>
        <mxCell id="mw8AwSV7gZqeVGYfNYGR-1" value="Practice" style="rhombus;whiteSpace=wrap;html=1;" parent="1" vertex="1">
          <mxGeometry x="359" y="270" width="110" height="110" as="geometry" />
        </mxCell>
        <mxCell id="t69asO9pZRZSOTAqBW_Y-19" style="edgeStyle=orthogonalEdgeStyle;rounded=0;orthogonalLoop=1;jettySize=auto;html=1;entryX=0;entryY=0.5;entryDx=0;entryDy=0;entryPerimeter=0;" edge="1" parent="1" source="t69asO9pZRZSOTAqBW_Y-3" target="rVXvo9-b3WHdrtRTh_N--1">
          <mxGeometry relative="1" as="geometry">
            <mxPoint x="354" y="200" as="targetPoint" />
            <Array as="points">
              <mxPoint x="300" y="485" />
              <mxPoint x="300" y="200" />
            </Array>
          </mxGeometry>
        </mxCell>
        <mxCell id="t69asO9pZRZSOTAqBW_Y-27" value="False" style="edgeLabel;html=1;align=center;verticalAlign=middle;resizable=0;points=[];" vertex="1" connectable="0" parent="t69asO9pZRZSOTAqBW_Y-19">
          <mxGeometry x="-0.8573" y="2" relative="1" as="geometry">
            <mxPoint as="offset" />
          </mxGeometry>
        </mxCell>
        <mxCell id="t69asO9pZRZSOTAqBW_Y-29" value="" style="edgeStyle=orthogonalEdgeStyle;rounded=0;orthogonalLoop=1;jettySize=auto;html=1;" edge="1" parent="1" source="t69asO9pZRZSOTAqBW_Y-3" target="t69asO9pZRZSOTAqBW_Y-28">
          <mxGeometry relative="1" as="geometry" />
        </mxCell>
        <mxCell id="2_32tca19rUCNIoP3h-C-1" value="True" style="edgeLabel;html=1;align=center;verticalAlign=middle;resizable=0;points=[];" vertex="1" connectable="0" parent="t69asO9pZRZSOTAqBW_Y-29">
          <mxGeometry x="-0.1185" relative="1" as="geometry">
            <mxPoint as="offset" />
          </mxGeometry>
        </mxCell>
        <mxCell id="t69asO9pZRZSOTAqBW_Y-3" value="Select Ai" style="rhombus;whiteSpace=wrap;html=1;" vertex="1" parent="1">
          <mxGeometry x="359" y="430" width="110" height="110" as="geometry" />
        </mxCell>
        <mxCell id="t69asO9pZRZSOTAqBW_Y-6" style="edgeStyle=orthogonalEdgeStyle;rounded=0;orthogonalLoop=1;jettySize=auto;html=1;exitX=0;exitY=0.5;exitDx=0;exitDy=0;entryX=0;entryY=0.5;entryDx=0;entryDy=0;entryPerimeter=0;" edge="1" parent="1" source="mw8AwSV7gZqeVGYfNYGR-1" target="rVXvo9-b3WHdrtRTh_N--1">
          <mxGeometry relative="1" as="geometry">
            <mxPoint x="350" y="330" as="sourcePoint" />
            <mxPoint x="354" y="200" as="targetPoint" />
            <Array as="points">
              <mxPoint x="310" y="325" />
              <mxPoint x="310" y="200" />
            </Array>
          </mxGeometry>
        </mxCell>
        <mxCell id="t69asO9pZRZSOTAqBW_Y-9" value="False" style="edgeLabel;html=1;align=center;verticalAlign=middle;resizable=0;points=[];" vertex="1" connectable="0" parent="t69asO9pZRZSOTAqBW_Y-6">
          <mxGeometry x="-0.9" y="-1" relative="1" as="geometry">
            <mxPoint x="-10" as="offset" />
          </mxGeometry>
        </mxCell>
        <mxCell id="t69asO9pZRZSOTAqBW_Y-33" style="edgeStyle=orthogonalEdgeStyle;rounded=0;orthogonalLoop=1;jettySize=auto;html=1;entryX=0;entryY=0.5;entryDx=0;entryDy=0;entryPerimeter=0;" edge="1" parent="1" source="t69asO9pZRZSOTAqBW_Y-28" target="rVXvo9-b3WHdrtRTh_N--1">
          <mxGeometry relative="1" as="geometry">
            <mxPoint x="354" y="200" as="targetPoint" />
            <Array as="points">
              <mxPoint x="290" y="610" />
              <mxPoint x="290" y="200" />
            </Array>
          </mxGeometry>
        </mxCell>
        <mxCell id="t69asO9pZRZSOTAqBW_Y-28" value="Pracetice and&amp;nbsp;&lt;div&gt;Generate process&lt;div&gt;&lt;span style=&quot;background-color: initial;&quot;&gt;Create score&lt;/span&gt;&lt;br&gt;&lt;/div&gt;&lt;/div&gt;&lt;div&gt;Insert score to Database&lt;/div&gt;" style="rounded=0;whiteSpace=wrap;html=1;" vertex="1" parent="1">
          <mxGeometry x="341" y="580" width="145" height="60" as="geometry" />
        </mxCell>
        <mxCell id="rVXvo9-b3WHdrtRTh_N--7" value="" style="edgeStyle=orthogonalEdgeStyle;rounded=0;orthogonalLoop=1;jettySize=auto;html=1;" edge="1" parent="1" source="rVXvo9-b3WHdrtRTh_N--1" target="mw8AwSV7gZqeVGYfNYGR-1">
          <mxGeometry relative="1" as="geometry" />
        </mxCell>
        <mxCell id="rVXvo9-b3WHdrtRTh_N--1" value="Dashboard" style="shape=display;whiteSpace=wrap;html=1;" vertex="1" parent="1">
          <mxGeometry x="374" y="180" width="80" height="40" as="geometry" />
        </mxCell>
      </root>
    </mxGraphModel>
  </diagram>
</mxfile>
